General

Complete name                    : Unleashed-Danny the Dog.720p.Dual.Audio{Hindi-English}BRRip.aaaevilacharya.mkv
Format                           : Matroska
File size                        : 1.46 GiB
Duration                         : 1h 42mn
Overall bit rate                 : 2 040 Kbps
Movie name                       : Unleashed>aaaevilacharya{TiRG}
Encoded date                     : UTC 2011-01-19 00:30:32

Video
ID                               : 1
Format                           : AVC
Format/Info                      : Advanced Video Codec
Format profile                   : High@L4.1
Format settings, CABAC           : Yes
Format settings, ReFrames        : 8 frames
Muxing mode                      : Container profile=Unknown@4.1
Codec ID                         : V_MPEG4/ISO/AVC
Duration                         : 1h 42mn
Bit rate                         : 1 784 Kbps
Width                            : 1 280 pixels
Height                           : 544 pixels
Display aspect ratio             : 2.35:1
Frame rate                       : 24.000 fps
Color space                      : YUV
Chroma subsampling               : 4:2:0
Bit depth                        : 8 bits
Scan type                        : Progressive
Bits/(Pixel*Frame)               : 0.107
Stream size                      : 1.25 GiB (85%)
Title                            : Unleashed>aaaevilacharya{TiRG}
Writing library                  : x264 core 98 r1649 c54c47d


Audio #1
ID                               : 2
Format                           : MPEG Audio
Format version                   : Version 1
Format profile                   : Layer 3
Mode                             : Joint stereo
Mode extension                   : MS Stereo
Codec ID                         : A_MPEG/L3
Codec ID/Hint                    : MP3
Duration                         : 1h 42mn
Bit rate mode                    : Constant
Bit rate                         : 128 Kbps
Channel(s)                       : 2 channels
Sampling rate                    : 32.0 KHz
Video delay                      : 5s 0ms
Stream size                      : 93.9 MiB (6%)
Title                            : aaaevilacharya{TiRG}
Writing library                  : LAME3.97
Language                         : Hindi


Audio #2
ID                               : 3
Format                           : MPEG Audio
Format version                   : Version 2
Format profile                   : Layer 3
Mode                             : Joint stereo
Mode extension                   : MS Stereo
Codec ID                         : A_MPEG/L3
Codec ID/Hint                    : MP3
Duration                         : 1h 42mn
Bit rate mode                    : Constant
Bit rate                         : 128 Kbps
Channel(s)                       : 2 channels
Sampling rate                    : 44.1 KHz
Stream size                      : 93.9 MiB (6%)
Title                            : aaaevilacharya{TiRG}
Writing library                  : LAME3.96.1
Language                         : English


SCREENSHOTS
 
http://img202.imageshack.us/img202/1307/unleashed720pdualaudioh.jpg 
http://img256.imageshack.us/img256/9126/unleashed2005frontcover.jpg 
http://img21.imageshack.us/img21/1307/unleashed720pdualaudioh.jpg 
http://img189.imageshack.us/img189/1307/unleashed720pdualaudioh.jpg 
http://img341.imageshack.us/img341/1307/unleashed720pdualaudioh.jpg 
http://img194.imageshack.us/img194/1307/unleashed720pdualaudioh.jpg 
http://img832.imageshack.us/img832/1307/unleashed720pdualaudioh.jpg 
http://img524.imageshack.us/img524/1307/unleashed720pdualaudioh.jpg 
http://img214.imageshack.us/img214/1307/unleashed720pdualaudioh.jpg 
http://img502.imageshack.us/img502/1307/unleashed720pdualaudioh.jpg 
http://img718.imageshack.us/img718/1307/unleashed720pdualaudioh.jpg 
http://img524.imageshack.us/img524/2865/unleashed720pdualaudiohf.jpg
